<?xml version="1.0" encoding="utf-8"?>
<!-- Generator: Adobe Illustrator 25.4.1, SVG Export Plug-In . SVG Version: 6.00 Build 0)  -->
<svg version="1.1" id="Layer_1" xmlns="http://www.w3.org/2000/svg" xmlns:xlink="http://www.w3.org/1999/xlink" x="0px" y="0px"
	 viewBox="0 0 1000 1000" style="enable-background:new 0 0 1000 1000;" xml:space="preserve">
<style type="text/css">
	.st0{fill:#C5E7EC;}
	.st1{fill:#F89E1B;}
	.st2{fill:#003B4A;}
</style>
<circle class="st0" cx="650" cy="239.2" r="27.4"/>
<circle class="st0" cx="744" cy="392.6" r="27.4"/>
<circle class="st0" cx="249.8" cy="392.6" r="27.4"/>
<circle class="st0" cx="351.3" cy="239.2" r="27.4"/>
<circle class="st1" cx="648.4" cy="871.6" r="59.3"/>
<circle class="st1" cx="826.4" cy="680.2" r="59.3"/>
<circle class="st0" cx="744" cy="776.4" r="11.8"/>
<circle class="st0" cx="249.8" cy="776.4" r="11.8"/>
<circle class="st0" cx="497.8" cy="872.5" r="11.8"/>
<circle class="st1" cx="167.5" cy="680.2" r="59.3"/>
<circle class="st1" cx="344.1" cy="872.5" r="59.3"/>
<path class="st0" d="M549,595.8h-99.8c-15.9,0-28.8-12.9-28.8-28.8v-99.8c0-15.9,12.9-28.8,28.8-28.8H549
	c15.9,0,28.8,12.9,28.8,28.8V567C577.8,582.9,564.9,595.8,549,595.8z"/>
<g>
	<g>
		<path class="st2" d="M886.5,508.9c-13.6,34.9-47.8,58.8-85.2,59.5c-21.5,0.4-43.4,0.3-64.6,0.2c-5.9,0-11.8,0-17.8-0.1
			c-4.8,0-8.7-1.4-11.2-3.9c-2-2-3.1-4.9-3-8.1c0.1-7.4,5.4-11.7,14.6-11.7c3.1,0,6.2,0,9.3,0c6.6,0,13.3,0,19.8,0
			c17.5,0,35.6,0.1,53.4-0.2c28.7-0.6,54.3-19.6,63.9-47.4c9.3-27,1-57.6-20.5-76.1c-1.4-1.2-2.8-2.2-4.3-3.3
			c-0.7-0.5-1.4-1-2.1-1.5l-1.3-1l-1.1,1.3c-18.8,20.9-40.9,33.9-67.6,39.7c-36.3,7.8-66.3-3.4-82.3-30.8
			c-14.5-24.9-11.1-57.1,8.3-78.3c19.9-21.8,51.9-28.2,77.8-15.4c3.9,1.9,8,5,8.6,7.6c0.9,3.9-0.4,9.6-2.8,13.3
			c-3.9,5.7-11.1,2.8-13.2,1.8c-11.1-5.4-21.5-6.7-32-3.8c-20.3,5.6-33.9,25.5-31.6,46.2c2.4,21.3,20.3,37.8,41.8,38.3
			c0.8,0,1.5,0,2.3,0c49.2,0,92.2-39.9,96.4-89.9c4.2-50.4-32.2-97.2-81-104.2c-8.2-1.2-16.7-0.8-24.8-0.4c-3.1,0.1-6.4,0.3-9.5,0.3
			c-7.6,0.1-11.6,3.9-13.1,12.2c-5.9,33.1-34.8,56-68.6,54.6c-22.4-0.9-42.7-13.4-54.3-33.3c-11.5-19.8-12.3-43.5-2.1-63.4
			c2.5-4.8,8-12.3,16.9-8.2c7.1,3.3,8.7,9.6,4.6,18.7c-8.3,18.5-5.6,36.1,7.7,49.6c12.5,12.7,30.6,16.4,47,9.6
			c17.1-7.1,27-23,26.5-42.7c-1-41.6-29.8-78.9-69.8-90.9c-40.3-12-84.7,3.6-108,37.8c-2.4,3.6-4,8.8-4,13.6
			c-0.2,21.5-0.2,43.4-0.2,64.6c0,9.4,0,18.8,0,28.1l0,1.1c0,2.4,0,4.8-0.6,6.8c-2,6.1-6.1,9-12.4,8.5c-6.4-0.5-10.6-5.6-10.6-13.1
			c0-12.7,0-25.3,0-38c0-19,0-38.7-0.2-58.1c0-4.8-1.6-10-4.1-13.6c-23.7-34.6-68.5-50-108.8-37.4c-19.9,6.2-37.1,18.4-49.6,35.1
			c-12.5,16.8-19.2,36.5-19.4,57.2c-0.1,18.4,10,34.1,26.6,41c16.2,6.8,34.7,3,47.1-9.6c12.6-12.8,15.8-31.2,8.4-48.1
			c-0.2-0.5-0.5-1.1-0.8-1.6c-0.3-0.5-0.5-1-0.7-1.5c-3.2-7.5-1.5-13.6,4.6-16.8c6.3-3.3,12.6-0.9,16.8,6.5
			c13.4,23.7,9.5,55.7-9.5,76c-18.7,20.1-41.1,26.7-66.8,19.6c-26.3-7.2-42.8-25-47.7-51.4c-2-10.5-7.9-12.2-14.8-13.3
			c-52.9-8-102.1,25.7-112.2,76.8c-5,25.4-0.2,51.2,13.5,72.5c13.7,21.4,35.1,36.4,60.3,42.2c11.5,2.6,23.1,3,32.8,1
			c11.2-2.3,20.6-9,26.4-19c6.2-10.6,7.7-23.4,3.9-35.2c-3.5-11.1-11.2-20.1-21.8-25.3c-10.6-5.3-22.6-6-33.6-2.1
			c-1.2,0.4-2.3,1-3.5,1.5c-0.7,0.3-1.4,0.7-2.1,1c-7.6,3.2-14.5,1.1-17.3-5.1c-2.9-6.5,0-13,7.4-16.6c19-9.2,38.2-9.6,57.3-1.1
			c28.8,12.8,44.3,43.6,37.8,75c-6.2,30.1-33.1,52.2-63.9,52.5c-31.4,0.4-59.4-10.3-83.1-31.8c-2.4-2.1-4.5-4.6-6.6-7.1
			c-1-1.1-1.9-2.3-2.9-3.3l-1-1.1l-1.3,0.8c-22.4,13.7-35.4,42.5-31,68.4c5.2,30.2,26.7,53.1,54.9,58.4c8.5,1.6,17.3,1.7,25.8,1.8
			l1.8,0c13.8,0.1,27.9,0.1,41.5,0.1c8.2,0,16.4,0,24.6,0c9.7,0,15.3,4.3,15.3,11.8c0,3.3-1,5.9-3,7.9c-2.6,2.6-6.8,4-12.2,4
			c-20.9,0-48.4,0.1-76.3,0c-42.6-0.1-77.7-24.2-91.5-62.9c-13.7-38.5-1.6-79.2,31.7-106.3c0.7-0.6,1.4-1.2,2.3-1.9l2.4-2l-0.6-1.3
			c-22.3-48.6-18.2-93,12.4-132c30.5-38.9,72.3-53.7,124.3-44l1.8,0.3l0.4-1.8c9.5-45.8,43.6-81.6,89-93.5
			c46.4-12.1,93.5,2.9,126,40.3l1.4,1.6l1.4-1.5c35.2-38.7,76.8-52.4,123.8-40.7c47.1,11.7,77.6,43.3,90.6,93.8l0.4,1.7l1.7-0.4
			c47.5-10.4,95.3,6.4,124.6,43.9c29.8,38,34.4,87.3,12.5,132l-0.6,1.3l1.1,0.9c1.3,1.1,2.5,2.2,3.8,3.3c2.7,2.3,5.6,4.7,8.2,7.2
			C891.7,433,900.3,473.2,886.5,508.9z"/>
	</g>
	<g>
		<path class="st2" d="M673.4,569.1c-0.7-6.4-5.5-10.4-12.5-10.5c-9.4-0.2-18.9-0.1-28.1-0.1c-3.9,0-7.8,0-11.8,0h-1.8v-31.2l13.4,0
			c8.5,0,16.8,0,25.1,0c5.8,0,10.3-1.5,12.9-4.3c2-2,2.9-4.7,2.8-8c-0.2-7.6-5.5-11.5-15.7-11.5c-8.5,0-16.9,0-25.5,0h-13.1v-31.1
			h1.8c3.9,0,7.8,0,11.7,0c8.8,0,17.2,0,25.7,0c5.4,0,9.6-1.4,12.2-4.1c2-2,3-4.7,2.9-8c-0.1-10.1-9.7-11.7-15.5-11.7
			c-2.2,0-4.3,0-6.5,0h-33.3l0.1-2c1.1-14.7,0.4-29.9-11.8-41.9c-11.7-11.5-26.6-11.7-40.9-10.9l-1.9,0.1v-14.1c0-8.8,0-17,0-25.3
			c0-5.7-1.6-15.4-11.5-15.7c-3.3-0.1-5.9,0.8-8,2.8c-2.7,2.7-4.2,7.1-4.2,12.9c0,8.5,0,17,0,25.5l0,13h-31.1v-1.8
			c0-3.9,0-7.8,0-11.7c0-8.9,0-17.2,0-25.7c0-5.4-1.5-9.6-4.1-12.2c-2-2-4.7-3-8-2.9c-7.3,0.1-11.5,5.5-11.7,14.7c0,2.4,0,4.7,0,7.1
			v32.6h-31.1v-1.8c0-4,0-8,0-11.9c0-9.3,0-18.1,0-27c-0.1-7.7-3.9-12.6-10.4-13.5c-3.4-0.5-6.4,0.4-8.8,2.5
			c-2.9,2.5-4.5,6.4-4.5,11c-0.1,9.1-0.1,18-0.1,27.4c0,4.1,0,8.1,0,12.3v2l-2-0.1c-14.7-1-29.9-0.3-41.8,11.7
			c-11.5,11.7-11.8,26.7-11.1,41.1l0.1,1.9h-14c-8.7,0-16.9,0-25.2,0c-5.9,0-10.4,1.5-13,4.2c-1.9,2-2.9,4.6-2.8,7.9
			c0.2,10.1,9.8,11.6,15.5,11.7c8.4,0,16.9,0,25.5,0c3.8,0,7.6,0,11.5,0h1.8v31.2h-1.8c-4.1,0-8.2,0-12.2,0
			c-9.5,0-18.4-0.1-27.6,0.1c-4.2,0.1-7.7,1.6-10.1,4.4c-2.1,2.4-3,5.6-2.6,8.9c0.9,6.5,5.8,10.3,13.5,10.4
			c9.1,0.1,18.4,0.1,27.4,0.1c3.9,0,7.8,0,11.7,0h1.8v31.2l-11.6,0c-8.6,0-17.1,0-25.6,0H336c-2.3,0-4.5,0-6.5,0.4
			c-5.7,1.3-9.7,6.8-9.1,12.7c0.7,6.3,5.6,10.4,12.4,10.6c9.3,0.2,18.5,0.1,28.2,0.1c4.1,0,8.2,0,12.4,0h1.9l-0.1,1.9
			c-0.9,17.2,0.8,30.8,11.7,41.7c11.5,11.4,26.1,11.9,41.3,11.5l1.9-0.1v1.9c0,4.3,0,8.5,0,12.6c0,9.5-0.1,18.5,0.1,27.6
			c0.1,4.4,1.9,8.3,4.9,10.6c2.6,2,5.8,2.7,9,1.9c6.6-1.6,9.8-5.9,9.8-13.3c0-9.2,0-18.4,0-27.6l0-13.3H485v11.6
			c0,8.7,0,17.1,0,25.6c0,0.5,0,1.1,0,1.6c0,2.3,0,4.5,0.4,6.5c1.3,5.7,6.9,9.7,12.7,9c6.3-0.7,10.4-5.6,10.5-12.4
			c0.2-9.4,0.1-18.9,0.1-28.1c0-3.9,0-7.8,0-11.8v-1.8h31.2l0,13.3c0,8.5,0,16.8,0,25.2c0,5.8,1.5,10.3,4.2,13c2,1.9,4.7,2.9,8,2.8
			c10-0.3,11.5-9.9,11.6-15.7c0-8.5,0-17,0-25.5v-12.6l1.6-0.2c45.6-6,51.6-12.1,53.6-54.1l0.1-1.7h17.9c7,0,14.1,0,21.1,0h0.9
			c1.9,0,3.8,0,5.5-0.4C670.1,580.5,674.1,574.9,673.4,569.1z M594.8,594.1c0,13.7-5.7,19.3-19.6,19.3c-27.2,0-53.3,0-78.6,0
			c-26.9,0-52.9,0-78.4,0c-13.9,0-19.2-5.5-19.3-19.6c0-56.3,0-107.6,0-157.1c0-13.8,5.5-19.2,19.6-19.3c18.6,0,37.3,0,55.9,0h45.7
			c18.2,0,36.4,0,54.6,0c14.7,0,20.1,5.3,20.1,19.6C594.9,492.9,594.9,544.3,594.8,594.1z"/>
	</g>
	<g>
		<path class="st2" d="M344.1,622.5c0-5.9-1.5-10.4-4.2-13c-2-1.9-4.7-2.9-7.9-2.8c-10.1,0.2-11.6,9.8-11.6,15.5
			c0,10.1,0,20.1,0,30.5l0,15.7h-1.8c-6.8,0-13.5,0-20.1,0c-6.5,0-12.9,0-19.2,0c-8.9,0-17.6,0-26.4,0c-10.8,0-14.8,4.1-14.8,14.9
			c-0.1,14.5-0.2,30.9,0.1,47.1c0.1,4.9-1,8.5-6.7,11.6c-15.6,8.3-23.7,25.2-20.1,41.9c3.9,18.3,19.4,31.4,37.6,31.9
			c18.2,0.4,34.1-11.6,38.9-29.1c4.8-17.9-2.9-35.6-19.7-45.1c-5.9-3.3-5.9-5.6-6-6.3c-0.3-10.4-0.3-20.6-0.3-31.4
			c0-3.2,0-6.5,0-9.7v-1.8h1.8c6.8,0,13.4,0,20,0c15.7,0,30.5,0,45.5,0c10.9,0,14.9-4,15-14.8C344.2,658.9,344.1,640.4,344.1,622.5z
			 M265.3,776.8c-0.1,4.1-1.9,7.9-4.9,10.8c-2.9,2.8-6.7,4.3-10.6,4.3h-0.5c-8.2-0.3-15-7.3-15-15.5c0-0.2,0-0.3,0-0.5
			c0.3-8.4,7.6-15.3,16-15c4.1,0.1,7.9,1.9,10.8,4.9C263.9,768.8,265.5,772.8,265.3,776.8z"/>
	</g>
	<g>
		<path class="st2" d="M761.9,741.2c-3-1.8-5.7-6.3-5.8-9.8c-0.4-10.9-0.3-22-0.3-32.7c0-4,0-7.9,0-11.9c0-15.4-2.9-18.4-18.3-18.4
			h-64.1v-1.8c0-4.7,0-9.4,0-14c0-10.8,0-20.9,0-31.2c0-9.2-4.3-14.5-11.6-14.7c-3.2-0.1-6,0.9-8,2.9c-2.7,2.6-4.1,6.8-4.1,12.1
			c-0.1,16.9-0.1,34.8,0,54.9c0,11.8,3.9,15.6,15.8,15.7c14.7,0,29.5,0,44.6,0h21.9v1.8c0,3.5,0,6.9,0,10.3c0,10.3,0.1,20.1-0.3,30
			c-0.1,3.7-5.4,6.8-6,7.2c-17,9.9-24.6,27.2-19.8,45.1c4.6,17.2,20.2,29.2,37.9,29.2h0.1c17.7-0.1,33.2-12.2,37.8-29.4
			C786.6,768.5,779,751.2,761.9,741.2z M754.8,787.4c-2.9,2.9-6.7,4.4-10.7,4.4h-0.2c-4.1-0.1-7.9-1.8-10.9-4.7
			c-2.9-3-4.5-6.9-4.4-11c0.1-8.4,7.3-15.4,15.7-15.3c4.1,0.1,7.9,1.7,10.9,4.7c2.9,3,4.5,6.9,4.4,11
			C759.4,780.7,757.8,784.5,754.8,787.4z"/>
	</g>
	<g>
		<path class="st2" d="M438.5,723.3c-14.1,0-28.6,0-43.8,0c-14.2,0-28.9,0-44.5,0c-12.3,0-16.1,3.8-16.1,16.2l0,9.6
			c0,25.6-0.1,52,0.1,77.9c0,5.5-1.7,8.5-6.4,10.9c-12.9,6.7-19.9,17.5-21,32c-1.4,19.5,11.8,36.8,31.4,41.1
			c18.6,4.1,37.8-6.6,44.6-24.9c6.7-17.9-0.7-38.2-17.6-48.1c-2.7-1.6-7-5.4-7-9.1c-0.3-20.5-0.3-40.7-0.3-62c0-5.9,0-11.9,0-18
			v-1.8l25.2,0c18.8,0,37.2,0,55.6,0c5.4,0,9.6-1.4,12.2-4c2-2,3-4.7,3-7.9C453.8,727.6,448.2,723.3,438.5,723.3z M361.4,872.5
			c0,4.1-1.6,8-4.5,10.9c-2.9,3-6.8,4.6-10.9,4.6h0c-8.4,0-15.5-7.1-15.5-15.5c0-8.4,7.1-15.5,15.4-15.5h0c4.1,0,7.9,1.6,10.9,4.5
			C359.8,864.5,361.4,868.4,361.4,872.5z"/>
	</g>
	<g>
		<path class="st2" d="M667.3,838.5c-5.6-3-7.6-6.4-7.6-12.8c0.3-29.5,0.2-58.6,0.1-88.3c0-9.6-4.3-14-13.9-14.1
			c-12-0.1-24.1-0.1-35.9-0.1c-9,0-18,0-27,0c-9.7,0-19.8,0-29.7,0.1c-4.2,0-7.9,1.4-10.2,3.9c-2,2.1-3.1,5-3,8.2
			c0.1,6.9,5.3,11.4,13,11.6c6.4,0.2,12.9,0.1,19.2,0.1c2.7,0,5.5,0,8.2,0H636v11c0,6.1,0,12.2,0,18.3c0,15.7-0.1,31.9,0.1,47.8
			c0.1,6.6-1.2,11.1-8.3,15c-15.4,8.4-22.7,26.6-17.7,44.3c4.8,16.8,20.3,28.5,37.8,28.5h0c17.7,0,33.3-12.1,37.9-29.3
			C690.5,864.9,682.9,846.8,667.3,838.5z M658.3,883.9c-2.9,2.6-6.6,4.1-10.3,4.1c-0.3,0-0.5,0-0.8,0c-8.4-0.4-15.2-7.9-14.7-16.3
			c0.4-8.4,7.8-15.2,16.2-14.7c4.1,0.2,7.9,2,10.7,5.1c2.8,3.1,4.3,7.1,4.1,11.1C663.2,877.3,661.4,881.1,658.3,883.9z"/>
	</g>
	<g>
		<path class="st2" d="M286,603.5c-2.4-2.5-6-3.8-10.3-3.8c-17.9-0.1-35.8-0.1-53.7-0.1c-17.6,0-35.2,0-52.6,0.1
			c-9.1,0-13.5,4.3-13.7,13.5l0,0.3c-0.2,6.3-0.3,12.9,0.1,19.2c0.4,6.6-1.8,10.5-7.7,13.6c-15.1,8.1-22.8,25.5-18.8,42.4
			c4.2,17.4,18.6,29.8,36,30.7c17.4,0.9,33.7-9.9,39.4-26.3c6-17.2-0.1-36-14.5-44.6c-9.8-5.8-12.6-12.4-9.9-23.5l0.3-1.3l1.4-0.1
			c0.6,0,1.2-0.1,1.7-0.1c1.2-0.1,2.3-0.1,3.5-0.1c9.4,0,18.7,0,28.1,0c19.7,0,40.1,0,60.2-0.1c8.3,0,13.6-4.5,13.6-11.8
			C289.1,608.4,288,605.6,286,603.5z M183,679.8c0,0.2,0,0.3,0,0.5c0,3.9-1.5,7.7-4.3,10.6c-2.9,3.1-6.7,4.8-10.8,4.9h-0.5
			c-3.9,0-7.6-1.5-10.6-4.3c-3-2.9-4.8-6.7-4.9-10.8c-0.3-8.4,6.6-15.7,15-16c4-0.1,8,1.4,11,4.3C181.1,671.9,182.8,675.7,183,679.8
			z"/>
	</g>
	<g>
		<path class="st2" d="M850.8,650.3c-11.8-7.1-13.5-15.8-12.6-27.5c0.1-1.8,0.1-3.6,0.1-5.5c0-0.7,0-1.4,0-2.1
			c-0.1-11.8-4-15.5-15.9-15.6c-18.8,0-37.6,0-56.4,0l-18.2,0c0,0,0,0,0,0c-3,0-6-0.1-8.9-0.1c-7.2-0.2-14.6-0.3-21.7,0.5
			c-3.9,0.5-9,3.9-11,7.4c-1.4,2.5-0.5,8.6,1.5,11c2.3,2.6,7.5,4.7,12.1,4.8c23,0.3,46.5,0.3,69.2,0.3c7.6,0,15.2,0,22.8,0h1.4
			l0.3,1.4c2.8,11.4,0.1,18-9.5,23.6c-13.8,7.9-20.3,25.9-15.3,42.9c4.7,16.1,19.6,27.7,36.3,28.2c16.9,0.5,32.3-9.8,38.2-25.6
			C868.7,679.2,866.2,659.5,850.8,650.3z M837,691.4c-2.9,2.8-6.7,4.3-10.6,4.3H826c-8.3-0.2-15.1-7.3-15.1-15.5v-0.4
			c0.2-8.4,7.5-15.3,15.9-15.1c4.1,0.1,7.9,1.8,10.8,4.9c2.9,3,4.4,6.9,4.3,11C841.8,684.7,840,688.6,837,691.4z"/>
	</g>
	<g>
		<path class="st2" d="M515,837.8c-4.6-2.5-6.4-5.5-6.3-10.9c0.2-11,0.1-22.1,0.1-32.9c0-4.1,0-8.3,0-12.4c0-4.2,0-8.3,0.1-12.5
			c0.1-10.5,0.2-21.3-0.4-31.9c-0.3-4.3-3.1-9.8-6.2-12c-1.9-1.3-3.9-2-5.9-2c-1.4,0-2.8,0.3-4.2,1c-4.3,2.2-7.1,7.5-7.1,13.4
			c-0.1,32-0.1,60.9,0,88.2c0,5.5-1.1,9.3-6.8,12.3c-16.3,8.7-24.1,26.5-19.3,44.3c4.6,17.2,20.1,29.3,37.8,29.4h0.1
			c18.2,0,33.5-12,38.1-29.9C539.5,864,531.7,846.7,515,837.8z M511.1,878.6c-0.8,1.8-2,3.5-3.5,5c-2.9,2.8-6.7,4.4-10.7,4.4h-0.3
			c-8.4-0.2-15.4-7.4-15.2-15.8c0.2-8.3,7.2-15.2,15.5-15.2h0.3c4.1,0.1,7.9,1.8,10.8,4.8c2.9,3,4.5,6.9,4.4,11
			C512.4,874.8,511.9,876.8,511.1,878.6z"/>
	</g>
	<g>
		<path class="st2" d="M261.6,172.2c0,3.1-1.3,6.1-3.6,8.3c-2.3,2.2-5.2,3.5-8.2,3.5h-0.1c-6.4,0-11.8-5.5-11.7-11.9
			c0-6.4,5.4-11.7,11.8-11.7h0.1C256.3,160.3,261.7,165.8,261.6,172.2z"/>
	</g>
	<g>
		<path class="st2" d="M755.8,171.8c0.1,3.1-1.1,6.1-3.3,8.4c-2.2,2.3-5.1,3.6-8.2,3.7c-3.1,0.1-6.1-1.1-8.4-3.3
			c-2.3-2.2-3.6-5.1-3.7-8.3c-0.2-6.4,5.1-11.9,11.5-12.1h0.3c3.1,0,6,1.3,8.2,3.4C754.4,165.8,755.7,168.7,755.8,171.8z"/>
	</g>
	<g>
		<path class="st2" d="M261.6,872.2c0.1,6.4-5.1,11.9-11.6,12.1c-0.1,0-0.2,0-0.3,0c-6.3,0-11.7-5.2-11.8-11.6
			c-0.1-3.1,1.1-6.1,3.3-8.4c2.2-2.3,5.1-3.6,8.3-3.7c0.1,0,0.2,0,0.3,0c3,0,5.9,1.2,8.1,3.3c1.2,1.1,2.1,2.4,2.7,3.8
			C261.3,869.2,261.6,870.7,261.6,872.2z"/>
	</g>
	<g>
		<path class="st2" d="M755.8,872.4c0,6.4-5.3,11.9-11.7,11.9H744c-6.4,0-11.8-5.4-11.8-11.7c0-3.1,1.2-6.1,3.4-8.3
			c2.2-2.3,5.2-3.5,8.3-3.5c3.1,0,6.1,1.2,8.3,3.4C754.5,866.4,755.8,869.3,755.8,872.4z"/>
	</g>
	<g>
		<path class="st2" d="M550,476.3c0-9.5-4.4-13.8-14.2-13.9c-8.9-0.1-18-0.1-26.8,0c-3.8,0-7.7,0-11.5,0c-4,0-7.9,0-11.9,0
			c-3.9,0-7.8,0-11.8,0c-5.1,0-10.1,0-15.2,0c-10.4,0.1-14.7,4.2-14.7,14.2c-0.1,26.9-0.1,53.1,0,78.1c0,9.6,4.4,13.8,14.1,13.9
			c27.5,0.1,53,0.1,78,0c9.6,0,13.8-4.4,13.9-14.1C550.1,526.9,550.1,501.3,550,476.3z M525.7,544.1h-57.5v-57.6h57.5V544.1z"/>
	</g>
</g>
</svg>
